<svg width="60" height="69" viewBox="0 0 60 69" fill="none" xmlns="http://www.w3.org/2000/svg">
<path d="M58.788 14.427C58.5671 14.2496 58.3022 14.1356 58.0215 14.0972C57.7408 14.0589 57.455 14.0975 57.1946 14.2091L31.8371 25.1895C30.7346 25.6699 29.3539 25.8983 27.9364 25.8983C25.9597 25.9061 23.9149 25.4468 22.4895 24.822C22.0551 24.6391 21.6415 24.4103 21.2557 24.1395C21.3607 24.087 21.492 24.0293 21.6364 23.9715L44.6996 13.986L48.1384 15.456V11.1589C48.1435 10.8525 48.0794 10.5488 47.9508 10.2706C47.8221 9.99244 47.6323 9.74692 47.3955 9.5524C47.1756 9.37519 46.9115 9.26127 46.6317 9.22289C46.3519 9.1845 46.0669 9.22309 45.8074 9.33452L20.4499 20.3149C19.6676 20.6299 18.9956 21.0184 18.4286 21.5828C17.772 22.2305 17.3991 23.1122 17.3917 24.0345C17.3917 24.0608 17.3996 24.1054 17.3996 24.1054V62.7716L17.3944 62.8242C17.3944 62.8346 17.4022 62.8399 17.4022 62.8504V62.8924H17.4075C17.46 64.2443 18.1425 65.1053 18.7935 65.7143C20.841 67.5203 24.2797 68.5309 27.939 68.5834C29.6715 68.5834 31.4302 68.3209 33.0577 67.6226L58.4231 56.6396C59.0925 56.3509 59.5308 55.6343 59.5308 54.8231V16.0335C59.5349 15.7273 59.4703 15.424 59.3417 15.146C59.2132 14.868 59.0239 14.6223 58.788 14.427ZM42.7046 7.07702C42.66 6.49952 42.4211 5.94827 41.9959 5.61752C41.775 5.44012 41.51 5.32613 41.2294 5.28775C40.9487 5.24937 40.6629 5.28805 40.4025 5.39965L15.045 16.3748C13.9425 16.8525 12.5591 17.0835 11.1442 17.0835C9.16761 17.0888 7.12273 16.6294 5.69736 16.002C5.26255 15.8221 4.84882 15.595 4.46361 15.3248C4.56861 15.2723 4.69986 15.2145 4.84423 15.1568L27.9101 5.17127L31.3489 6.64127V2.3494C31.3535 2.04278 31.2889 1.73905 31.1598 1.46089C31.0307 1.18272 30.8405 0.93729 30.6034 0.742898C30.3829 0.565724 30.1184 0.45185 29.8382 0.413471C29.558 0.375092 29.2726 0.413652 29.0126 0.525023L3.65511 11.508C2.87286 11.823 2.20348 12.2089 1.63386 12.7759C0.978243 13.4241 0.606325 14.3057 0.599609 15.2276C0.599609 15.2591 0.607484 15.3011 0.607484 15.3011V54.0908H0.612735C0.665235 55.4426 1.34773 56.3036 1.99873 56.9126C4.04623 58.7186 7.48498 59.7267 11.1469 59.7791C12.1413 59.7733 13.1326 59.666 14.1052 59.4589V24.1028C14.079 22.2653 14.814 20.5013 16.1055 19.2308C17.0002 18.3628 18.0634 17.6875 19.2292 17.2463L42.7046 7.07702Z" fill="#1D73C2"/>
</svg>
